<mxfile host="app.diagrams.net" modified="2022-10-04T21:22:18.110Z" agent="5.0 (Windows NT 10.0; Win64; x64) AppleWebKit/537.36 (KHTML, like Gecko) Chrome/106.0.0.0 Safari/537.36" etag="_CO89TEVn5X8BDd4Vb39" version="20.4.0" type="github">
  <diagram id="kgpKYQtTHZ0yAKxKKP6v" name="Page-1">
    <mxGraphModel dx="1653" dy="794" grid="1" gridSize="10" guides="1" tooltips="1" connect="1" arrows="1" fold="1" page="1" pageScale="1" pageWidth="850" pageHeight="1100" math="0" shadow="0">
      <root>
        <mxCell id="0" />
        <mxCell id="1" parent="0" />
        <mxCell id="3nuBFxr9cyL0pnOWT2aG-1" value="Comprador&#xa;Cadastrado" style="shape=umlLifeline;perimeter=lifelinePerimeter;container=1;collapsible=0;recursiveResize=0;rounded=0;shadow=0;strokeWidth=1;" parent="1" vertex="1">
          <mxGeometry x="50" y="80" width="100" height="470" as="geometry" />
        </mxCell>
        <mxCell id="3nuBFxr9cyL0pnOWT2aG-2" value="" style="points=[];perimeter=orthogonalPerimeter;rounded=0;shadow=0;strokeWidth=1;" parent="3nuBFxr9cyL0pnOWT2aG-1" vertex="1">
          <mxGeometry x="45" y="130" width="10" height="30" as="geometry" />
        </mxCell>
        <mxCell id="UxvHhi9mB5L6F9WSCHQR-36" value="" style="points=[];perimeter=orthogonalPerimeter;rounded=0;shadow=0;strokeWidth=1;" vertex="1" parent="3nuBFxr9cyL0pnOWT2aG-1">
          <mxGeometry x="45" y="270" width="10" height="20" as="geometry" />
        </mxCell>
        <mxCell id="UxvHhi9mB5L6F9WSCHQR-50" value="" style="points=[];perimeter=orthogonalPerimeter;rounded=0;shadow=0;strokeWidth=1;" vertex="1" parent="3nuBFxr9cyL0pnOWT2aG-1">
          <mxGeometry x="45" y="300" width="10" height="170" as="geometry" />
        </mxCell>
        <mxCell id="3nuBFxr9cyL0pnOWT2aG-5" value="Vendedor&#xa;Cadastrado" style="shape=umlLifeline;perimeter=lifelinePerimeter;container=1;collapsible=0;recursiveResize=0;rounded=0;shadow=0;strokeWidth=1;" parent="1" vertex="1">
          <mxGeometry x="220" y="80" width="100" height="470" as="geometry" />
        </mxCell>
        <mxCell id="3nuBFxr9cyL0pnOWT2aG-6" value="" style="points=[];perimeter=orthogonalPerimeter;rounded=0;shadow=0;strokeWidth=1;" parent="3nuBFxr9cyL0pnOWT2aG-5" vertex="1">
          <mxGeometry x="45" y="85" width="10" height="165" as="geometry" />
        </mxCell>
        <mxCell id="UxvHhi9mB5L6F9WSCHQR-11" value="Criar Cadastro / Logar" style="verticalAlign=bottom;endArrow=block;shadow=0;strokeWidth=1;" edge="1" parent="3nuBFxr9cyL0pnOWT2aG-5">
          <mxGeometry x="-0.4761" relative="1" as="geometry">
            <mxPoint x="55" y="85.00000000000011" as="sourcePoint" />
            <mxPoint x="379.5" y="85.00000000000011" as="targetPoint" />
            <mxPoint as="offset" />
          </mxGeometry>
        </mxCell>
        <mxCell id="3nuBFxr9cyL0pnOWT2aG-7" value="Produto Aprovado / &#xa;Reprovado" style="verticalAlign=bottom;endArrow=open;dashed=1;endSize=8;exitX=0.52;exitY=0.488;shadow=0;strokeWidth=1;exitDx=0;exitDy=0;exitPerimeter=0;entryX=1.1;entryY=0.833;entryDx=0;entryDy=0;entryPerimeter=0;" parent="1" edge="1">
          <mxGeometry x="-0.0633" relative="1" as="geometry">
            <mxPoint x="436" y="318.6500000000001" as="targetPoint" />
            <mxPoint x="602" y="319.24" as="sourcePoint" />
            <mxPoint as="offset" />
          </mxGeometry>
        </mxCell>
        <mxCell id="UxvHhi9mB5L6F9WSCHQR-1" value="Especialista" style="shape=umlLifeline;perimeter=lifelinePerimeter;container=1;collapsible=0;recursiveResize=0;rounded=0;shadow=0;strokeWidth=1;" vertex="1" parent="1">
          <mxGeometry x="380" y="71" width="100" height="470" as="geometry" />
        </mxCell>
        <mxCell id="UxvHhi9mB5L6F9WSCHQR-2" value="" style="points=[];perimeter=orthogonalPerimeter;rounded=0;shadow=0;strokeWidth=1;" vertex="1" parent="UxvHhi9mB5L6F9WSCHQR-1">
          <mxGeometry x="45" y="200" width="10" height="50" as="geometry" />
        </mxCell>
        <mxCell id="UxvHhi9mB5L6F9WSCHQR-39" value="" style="points=[];perimeter=orthogonalPerimeter;rounded=0;shadow=0;strokeWidth=1;" vertex="1" parent="UxvHhi9mB5L6F9WSCHQR-1">
          <mxGeometry x="45" y="303" width="10" height="30" as="geometry" />
        </mxCell>
        <mxCell id="UxvHhi9mB5L6F9WSCHQR-57" value="Envio " style="verticalAlign=bottom;endArrow=block;shadow=0;strokeWidth=1;exitX=1.2;exitY=0.733;exitDx=0;exitDy=0;exitPerimeter=0;" edge="1" parent="UxvHhi9mB5L6F9WSCHQR-1" target="UxvHhi9mB5L6F9WSCHQR-3">
          <mxGeometry x="-0.5349" relative="1" as="geometry">
            <mxPoint x="-110" y="430" as="sourcePoint" />
            <mxPoint x="384.5" y="430" as="targetPoint" />
            <mxPoint as="offset" />
          </mxGeometry>
        </mxCell>
        <mxCell id="UxvHhi9mB5L6F9WSCHQR-3" value="Administrador / &#xa;Site" style="shape=umlLifeline;perimeter=lifelinePerimeter;container=1;collapsible=0;recursiveResize=0;rounded=0;shadow=0;strokeWidth=1;" vertex="1" parent="1">
          <mxGeometry x="550" y="79" width="100" height="480" as="geometry" />
        </mxCell>
        <mxCell id="UxvHhi9mB5L6F9WSCHQR-4" value="" style="points=[];perimeter=orthogonalPerimeter;rounded=0;shadow=0;strokeWidth=1;" vertex="1" parent="UxvHhi9mB5L6F9WSCHQR-3">
          <mxGeometry x="45" y="85" width="10" height="30" as="geometry" />
        </mxCell>
        <mxCell id="UxvHhi9mB5L6F9WSCHQR-19" value="" style="points=[];perimeter=orthogonalPerimeter;rounded=0;shadow=0;strokeWidth=1;" vertex="1" parent="UxvHhi9mB5L6F9WSCHQR-3">
          <mxGeometry x="45" y="130" width="10" height="30" as="geometry" />
        </mxCell>
        <mxCell id="UxvHhi9mB5L6F9WSCHQR-32" value="" style="points=[];perimeter=orthogonalPerimeter;rounded=0;shadow=0;strokeWidth=1;" vertex="1" parent="UxvHhi9mB5L6F9WSCHQR-3">
          <mxGeometry x="45" y="191" width="10" height="49" as="geometry" />
        </mxCell>
        <mxCell id="UxvHhi9mB5L6F9WSCHQR-16" value="" style="points=[];perimeter=orthogonalPerimeter;rounded=0;shadow=0;strokeWidth=1;" vertex="1" parent="UxvHhi9mB5L6F9WSCHQR-3">
          <mxGeometry x="45" y="310" width="10" height="30" as="geometry" />
        </mxCell>
        <mxCell id="UxvHhi9mB5L6F9WSCHQR-54" value="" style="points=[];perimeter=orthogonalPerimeter;rounded=0;shadow=0;strokeWidth=1;" vertex="1" parent="UxvHhi9mB5L6F9WSCHQR-3">
          <mxGeometry x="45" y="370" width="10" height="110" as="geometry" />
        </mxCell>
        <mxCell id="UxvHhi9mB5L6F9WSCHQR-5" value="Item Leilão" style="shape=umlLifeline;perimeter=lifelinePerimeter;container=1;collapsible=0;recursiveResize=0;rounded=0;shadow=0;strokeWidth=1;" vertex="1" parent="1">
          <mxGeometry x="710" y="80" width="100" height="480" as="geometry" />
        </mxCell>
        <mxCell id="UxvHhi9mB5L6F9WSCHQR-6" value="" style="points=[];perimeter=orthogonalPerimeter;rounded=0;shadow=0;strokeWidth=1;" vertex="1" parent="UxvHhi9mB5L6F9WSCHQR-5">
          <mxGeometry x="45" y="210" width="10" height="270" as="geometry" />
        </mxCell>
        <mxCell id="UxvHhi9mB5L6F9WSCHQR-15" value="Criar Cadastro / Logar" style="verticalAlign=bottom;endArrow=block;shadow=0;strokeWidth=1;entryX=0.1;entryY=0.133;entryDx=0;entryDy=0;entryPerimeter=0;" edge="1" parent="1">
          <mxGeometry x="-0.6797" relative="1" as="geometry">
            <mxPoint x="110" y="211" as="sourcePoint" />
            <mxPoint x="596" y="209.98999999999978" as="targetPoint" />
            <mxPoint as="offset" />
          </mxGeometry>
        </mxCell>
        <mxCell id="UxvHhi9mB5L6F9WSCHQR-28" value="Confirmação de Dados" style="html=1;verticalAlign=bottom;endArrow=open;dashed=1;endSize=8;rounded=0;strokeWidth=1;jumpSize=5;entryX=1.1;entryY=0.152;entryDx=0;entryDy=0;entryPerimeter=0;" edge="1" parent="1">
          <mxGeometry x="0.4679" relative="1" as="geometry">
            <mxPoint x="594.5" y="193" as="sourcePoint" />
            <mxPoint x="276" y="193.08000000000004" as="targetPoint" />
            <mxPoint x="-1" as="offset" />
          </mxGeometry>
        </mxCell>
        <mxCell id="UxvHhi9mB5L6F9WSCHQR-29" value="Registrar Produto" style="html=1;verticalAlign=bottom;endArrow=block;rounded=0;strokeWidth=1;jumpSize=5;exitX=1.3;exitY=0.581;exitDx=0;exitDy=0;exitPerimeter=0;" edge="1" parent="1" source="3nuBFxr9cyL0pnOWT2aG-6" target="UxvHhi9mB5L6F9WSCHQR-1">
          <mxGeometry width="80" relative="1" as="geometry">
            <mxPoint x="380" y="290" as="sourcePoint" />
            <mxPoint x="420" y="260" as="targetPoint" />
          </mxGeometry>
        </mxCell>
        <mxCell id="UxvHhi9mB5L6F9WSCHQR-31" value="Analisar Produto / Fotos" style="html=1;verticalAlign=bottom;endArrow=block;rounded=0;strokeWidth=1;jumpSize=5;entryX=0.5;entryY=0.025;entryDx=0;entryDy=0;entryPerimeter=0;" edge="1" parent="1" source="UxvHhi9mB5L6F9WSCHQR-1" target="UxvHhi9mB5L6F9WSCHQR-32">
          <mxGeometry x="-0.1" width="80" relative="1" as="geometry">
            <mxPoint x="440" y="272" as="sourcePoint" />
            <mxPoint x="590" y="270" as="targetPoint" />
            <Array as="points" />
            <mxPoint as="offset" />
          </mxGeometry>
        </mxCell>
        <mxCell id="UxvHhi9mB5L6F9WSCHQR-33" value="Feedback do Produto" style="verticalAlign=bottom;endArrow=open;dashed=1;endSize=8;exitX=-0.1;exitY=0.975;shadow=0;strokeWidth=1;exitDx=0;exitDy=0;exitPerimeter=0;entryX=1;entryY=1;entryDx=0;entryDy=0;entryPerimeter=0;" edge="1" parent="1" target="3nuBFxr9cyL0pnOWT2aG-6">
          <mxGeometry x="-0.0633" relative="1" as="geometry">
            <mxPoint x="280" y="330" as="targetPoint" />
            <mxPoint x="425" y="330.02" as="sourcePoint" />
            <mxPoint as="offset" />
          </mxGeometry>
        </mxCell>
        <mxCell id="UxvHhi9mB5L6F9WSCHQR-34" value="" style="ellipse;html=1;shape=startState;fillColor=#000000;strokeColor=#ff0000;" vertex="1" parent="1">
          <mxGeometry x="255" y="10" width="30" height="30" as="geometry" />
        </mxCell>
        <mxCell id="UxvHhi9mB5L6F9WSCHQR-35" value="" style="edgeStyle=orthogonalEdgeStyle;html=1;verticalAlign=bottom;endArrow=open;endSize=8;strokeColor=#ff0000;rounded=0;strokeWidth=1;jumpSize=5;" edge="1" source="UxvHhi9mB5L6F9WSCHQR-34" parent="1">
          <mxGeometry relative="1" as="geometry">
            <mxPoint x="270" y="70" as="targetPoint" />
          </mxGeometry>
        </mxCell>
        <mxCell id="UxvHhi9mB5L6F9WSCHQR-37" value="Buscar Produtos" style="verticalAlign=bottom;endArrow=block;shadow=0;strokeWidth=1;" edge="1" parent="1">
          <mxGeometry relative="1" as="geometry">
            <mxPoint x="110" y="352" as="sourcePoint" />
            <mxPoint x="270" y="352" as="targetPoint" />
            <mxPoint as="offset" />
          </mxGeometry>
        </mxCell>
        <mxCell id="UxvHhi9mB5L6F9WSCHQR-38" value="Dar Lance" style="verticalAlign=bottom;endArrow=block;shadow=0;strokeWidth=1;exitX=1.2;exitY=0.733;exitDx=0;exitDy=0;exitPerimeter=0;entryX=0.2;entryY=0.233;entryDx=0;entryDy=0;entryPerimeter=0;" edge="1" parent="1">
          <mxGeometry x="-0.4188" y="-1" relative="1" as="geometry">
            <mxPoint x="107" y="379.9899999999998" as="sourcePoint" />
            <mxPoint x="427" y="377.9899999999998" as="targetPoint" />
            <mxPoint as="offset" />
          </mxGeometry>
        </mxCell>
        <mxCell id="UxvHhi9mB5L6F9WSCHQR-40" value="Aprovar Lance" style="html=1;verticalAlign=bottom;endArrow=block;rounded=0;strokeWidth=1;jumpSize=5;" edge="1" parent="1">
          <mxGeometry x="-0.0557" width="80" relative="1" as="geometry">
            <mxPoint x="431" y="376" as="sourcePoint" />
            <mxPoint x="600" y="376" as="targetPoint" />
            <Array as="points" />
            <mxPoint as="offset" />
          </mxGeometry>
        </mxCell>
        <mxCell id="UxvHhi9mB5L6F9WSCHQR-27" value="Confirmação de Dados" style="html=1;verticalAlign=bottom;endArrow=open;dashed=1;endSize=8;rounded=0;strokeWidth=1;jumpSize=5;" edge="1" parent="1" source="UxvHhi9mB5L6F9WSCHQR-3">
          <mxGeometry x="0.6967" relative="1" as="geometry">
            <mxPoint x="185" y="240" as="sourcePoint" />
            <mxPoint x="100" y="240" as="targetPoint" />
            <mxPoint x="1" as="offset" />
          </mxGeometry>
        </mxCell>
        <mxCell id="UxvHhi9mB5L6F9WSCHQR-47" value="Status Produto" style="html=1;verticalAlign=bottom;endArrow=block;rounded=0;strokeWidth=1;jumpSize=5;" edge="1" parent="1">
          <mxGeometry x="-0.1" width="80" relative="1" as="geometry">
            <mxPoint x="607" y="290.16" as="sourcePoint" />
            <mxPoint x="760" y="291" as="targetPoint" />
            <Array as="points" />
            <mxPoint as="offset" />
          </mxGeometry>
        </mxCell>
        <mxCell id="UxvHhi9mB5L6F9WSCHQR-49" value="Atualização Status" style="html=1;verticalAlign=bottom;endArrow=block;rounded=0;strokeWidth=1;jumpSize=5;entryX=0;entryY=0.677;entryDx=0;entryDy=0;entryPerimeter=0;" edge="1" parent="1">
          <mxGeometry x="-0.1" width="80" relative="1" as="geometry">
            <mxPoint x="607" y="409.9999999999999" as="sourcePoint" />
            <mxPoint x="755" y="410.7800000000001" as="targetPoint" />
            <Array as="points" />
            <mxPoint as="offset" />
          </mxGeometry>
        </mxCell>
        <mxCell id="UxvHhi9mB5L6F9WSCHQR-51" value="Lance Arrematado" style="verticalAlign=bottom;endArrow=open;dashed=1;endSize=8;exitX=-0.1;exitY=0.975;shadow=0;strokeWidth=1;exitDx=0;exitDy=0;exitPerimeter=0;" edge="1" parent="1" target="3nuBFxr9cyL0pnOWT2aG-1">
          <mxGeometry x="-0.6973" relative="1" as="geometry">
            <mxPoint x="430" y="420.19000000000005" as="targetPoint" />
            <mxPoint x="595" y="420" as="sourcePoint" />
            <mxPoint as="offset" />
          </mxGeometry>
        </mxCell>
        <mxCell id="UxvHhi9mB5L6F9WSCHQR-53" value="Pagamento / Forma de Envio" style="verticalAlign=bottom;endArrow=block;shadow=0;strokeWidth=1;exitX=1.2;exitY=0.733;exitDx=0;exitDy=0;exitPerimeter=0;" edge="1" parent="1" target="UxvHhi9mB5L6F9WSCHQR-3">
          <mxGeometry x="-0.6562" relative="1" as="geometry">
            <mxPoint x="105" y="449.9999999999998" as="sourcePoint" />
            <mxPoint x="425" y="448" as="targetPoint" />
            <mxPoint as="offset" />
          </mxGeometry>
        </mxCell>
        <mxCell id="UxvHhi9mB5L6F9WSCHQR-56" value="" style="points=[];perimeter=orthogonalPerimeter;rounded=0;shadow=0;strokeWidth=1;" vertex="1" parent="1">
          <mxGeometry x="265" y="500" width="10" height="50" as="geometry" />
        </mxCell>
        <mxCell id="UxvHhi9mB5L6F9WSCHQR-58" value="Atualização Status" style="html=1;verticalAlign=bottom;endArrow=block;rounded=0;strokeWidth=1;jumpSize=5;entryX=0;entryY=0.677;entryDx=0;entryDy=0;entryPerimeter=0;exitX=0.52;exitY=0.979;exitDx=0;exitDy=0;exitPerimeter=0;" edge="1" parent="1">
          <mxGeometry x="-0.1" width="80" relative="1" as="geometry">
            <mxPoint x="602" y="509.94900000000007" as="sourcePoint" />
            <mxPoint x="758" y="509.7800000000002" as="targetPoint" />
            <Array as="points" />
            <mxPoint as="offset" />
          </mxGeometry>
        </mxCell>
        <mxCell id="UxvHhi9mB5L6F9WSCHQR-59" value="Receber Produto" style="verticalAlign=bottom;endArrow=open;dashed=1;endSize=8;shadow=0;strokeWidth=1;" edge="1" parent="1">
          <mxGeometry x="-0.0588" relative="1" as="geometry">
            <mxPoint x="100" y="540" as="targetPoint" />
            <mxPoint x="270" y="540" as="sourcePoint" />
            <mxPoint as="offset" />
          </mxGeometry>
        </mxCell>
        <mxCell id="UxvHhi9mB5L6F9WSCHQR-60" value="Atualização Status" style="html=1;verticalAlign=bottom;endArrow=block;rounded=0;strokeWidth=1;jumpSize=5;entryX=0.5;entryY=0.964;entryDx=0;entryDy=0;entryPerimeter=0;" edge="1" parent="1" target="UxvHhi9mB5L6F9WSCHQR-6">
          <mxGeometry x="-0.1" width="80" relative="1" as="geometry">
            <mxPoint x="600" y="550" as="sourcePoint" />
            <mxPoint x="750" y="550" as="targetPoint" />
            <Array as="points" />
            <mxPoint as="offset" />
          </mxGeometry>
        </mxCell>
      </root>
    </mxGraphModel>
  </diagram>
</mxfile>
